<svg viewBox="0 0 512 512" xmlns="http://www.w3.org/2000/svg" enable-background="new 0 0 512 512"><style type="text/css"> .st1{fill:none;stroke:#FFFFFF;stroke-width:30;stroke-miterlimit:10;}</style><path fill="#2BB673" d="M489 255.9v-.7c0-1.6 0-3.2-.1-4.7 0-.9-.1-1.8-.1-2.8l-.1-2.7-.2-3.3-.1-2.1-.3-3.6-.1-1.6c-.1-1.3-.3-2.6-.4-4l-.1-1c-13.2-116.2-111.8-206.5-231.5-206.5s-218.3 90.3-231.5 206.6l-.1 1c-.1 1.3-.3 2.6-.4 4-.1.5-.1 1.1-.1 1.6l-.3 3.6-.1 2.1-.2 3.3-.1 2.7c0 .9-.1 1.8-.1 2.8 0 1.6-.1 3.2-.1 4.7v1.5999999999999999c0 1.6 0 3.2.1 4.7 0 .9.1 1.8.1 2.8l.1 2.7.2 3.3.1 2.1.3 3.6.1 1.6c.1 1.3.3 2.6.4 4l.1 1c13.2 116.1 111.8 206.4 231.5 206.4s218.3-90.3 231.5-206.5l.1-1c.1-1.3.3-2.6.4-4 .1-.5.1-1.1.1-1.6l.3-3.6.1-2.1.2-3.3.1-2.7c0-.9.1-1.8.1-2.8 0-1.6.1-3.2.1-4.7v-.8999999999999999z" id="XMLID_3_" /><g id="XMLID_1_"><path fill="none" stroke="#FFFFFF" stroke-width="30" stroke-miterlimit="10" id="XMLID_2_" d="M213.6 344.2l156.1-156" /><path fill="none" stroke="#FFFFFF" stroke-width="30" stroke-miterlimit="10" id="XMLID_4_" d="M233.8 345.2l-79.1-79.1" /></g></svg>